<?xml version="1.0" encoding="UTF-8"?>
<svg xmlns="http://www.w3.org/2000/svg" version="1.1" width="500" height="500" viewBox="0 0 500 500"><rect x="0" y="0" width="500" height="500" fill="#ffffff"/><g transform="scale(15.152)"><g transform="translate(0,0)"><path fill-rule="evenodd" d="M9 0L9 1L10 1L10 0ZM12 0L12 3L13 3L13 0ZM14 0L14 1L15 1L15 2L14 2L14 3L15 3L15 4L14 4L14 5L13 5L13 6L12 6L12 7L11 7L11 6L10 6L10 7L9 7L9 5L10 5L10 4L9 4L9 3L11 3L11 2L8 2L8 8L11 8L11 10L12 10L12 11L11 11L11 12L10 12L10 10L9 10L9 11L8 11L8 12L6 12L6 11L7 11L7 10L8 10L8 9L7 9L7 8L2 8L2 9L3 9L3 10L0 10L0 11L1 11L1 12L0 12L0 15L1 15L1 14L2 14L2 11L3 11L3 12L6 12L6 13L5 13L5 14L6 14L6 15L7 15L7 16L4 16L4 15L2 15L2 16L1 16L1 17L0 17L0 18L3 18L3 17L2 17L2 16L4 16L4 17L7 17L7 18L5 18L5 20L3 20L3 19L0 19L0 20L2 20L2 21L5 21L5 20L6 20L6 21L7 21L7 22L4 22L4 23L3 23L3 24L2 24L2 25L5 25L5 24L6 24L6 25L7 25L7 24L9 24L9 25L8 25L8 26L9 26L9 25L12 25L12 26L13 26L13 29L12 29L12 28L11 28L11 30L12 30L12 32L10 32L10 28L9 28L9 27L8 27L8 31L9 31L9 32L8 32L8 33L13 33L13 32L14 32L14 31L15 31L15 33L17 33L17 31L18 31L18 33L19 33L19 32L20 32L20 33L24 33L24 32L25 32L25 33L27 33L27 32L25 32L25 31L28 31L28 32L30 32L30 33L32 33L32 32L33 32L33 31L30 31L30 30L32 30L32 29L31 29L31 28L33 28L33 23L32 23L32 22L31 22L31 21L32 21L32 20L33 20L33 19L32 19L32 20L31 20L31 19L30 19L30 18L33 18L33 17L31 17L31 16L33 16L33 14L32 14L32 12L33 12L33 9L31 9L31 8L26 8L26 10L28 10L28 11L26 11L26 12L24 12L24 10L25 10L25 9L24 9L24 10L23 10L23 9L22 9L22 7L23 7L23 8L25 8L25 5L24 5L24 4L25 4L25 3L24 3L24 2L23 2L23 1L22 1L22 0L21 0L21 1L22 1L22 2L23 2L23 3L21 3L21 2L20 2L20 1L17 1L17 2L16 2L16 1L15 1L15 0ZM24 0L24 1L25 1L25 0ZM15 2L15 3L16 3L16 4L17 4L17 5L15 5L15 8L14 8L14 6L13 6L13 7L12 7L12 10L13 10L13 8L14 8L14 10L18 10L18 11L17 11L17 12L16 12L16 11L14 11L14 12L13 12L13 11L12 11L12 13L13 13L13 15L11 15L11 13L9 13L9 12L8 12L8 13L9 13L9 14L8 14L8 16L7 16L7 17L8 17L8 16L10 16L10 17L9 17L9 19L8 19L8 18L7 18L7 19L6 19L6 20L9 20L9 21L10 21L10 22L8 22L8 23L9 23L9 24L11 24L11 23L12 23L12 24L13 24L13 25L14 25L14 27L15 27L15 28L14 28L14 29L13 29L13 30L14 30L14 29L15 29L15 28L16 28L16 30L15 30L15 31L16 31L16 30L18 30L18 31L19 31L19 30L20 30L20 31L21 31L21 32L23 32L23 31L22 31L22 30L20 30L20 29L21 29L21 28L19 28L19 27L22 27L22 29L24 29L24 30L25 30L25 29L24 29L24 24L26 24L26 23L27 23L27 24L29 24L29 25L32 25L32 23L31 23L31 22L29 22L29 21L30 21L30 20L29 20L29 19L28 19L28 18L29 18L29 17L28 17L28 16L29 16L29 15L28 15L28 14L26 14L26 13L25 13L25 14L23 14L23 15L22 15L22 14L20 14L20 16L19 16L19 13L22 13L22 12L23 12L23 13L24 13L24 12L23 12L23 11L22 11L22 10L20 10L20 8L19 8L19 7L20 7L20 6L19 6L19 5L21 5L21 7L22 7L22 5L23 5L23 7L24 7L24 5L23 5L23 4L24 4L24 3L23 3L23 4L22 4L22 5L21 5L21 3L19 3L19 2L18 2L18 3L16 3L16 2ZM11 4L11 5L12 5L12 4ZM17 5L17 6L16 6L16 9L19 9L19 8L17 8L17 6L18 6L18 7L19 7L19 6L18 6L18 5ZM0 8L0 9L1 9L1 8ZM4 9L4 11L6 11L6 10L7 10L7 9ZM19 10L19 11L18 11L18 12L21 12L21 11L20 11L20 10ZM29 10L29 11L28 11L28 12L27 12L27 13L30 13L30 12L32 12L32 11L31 11L31 10ZM14 12L14 13L15 13L15 14L14 14L14 16L15 16L15 19L14 19L14 17L13 17L13 16L12 16L12 17L11 17L11 19L10 19L10 21L11 21L11 22L12 22L12 21L13 21L13 23L14 23L14 24L15 24L15 25L16 25L16 26L17 26L17 25L16 25L16 24L20 24L20 26L22 26L22 27L23 27L23 26L22 26L22 25L23 25L23 24L22 24L22 25L21 25L21 23L18 23L18 22L17 22L17 23L16 23L16 22L15 22L15 21L19 21L19 20L20 20L20 22L24 22L24 23L25 23L25 21L21 21L21 20L22 20L22 19L23 19L23 20L24 20L24 19L25 19L25 20L26 20L26 21L27 21L27 22L28 22L28 23L29 23L29 24L30 24L30 23L29 23L29 22L28 22L28 21L29 21L29 20L27 20L27 19L26 19L26 18L28 18L28 17L27 17L27 15L26 15L26 16L25 16L25 17L24 17L24 19L23 19L23 18L22 18L22 17L23 17L23 16L20 16L20 17L19 17L19 16L18 16L18 18L17 18L17 16L16 16L16 12ZM3 13L3 14L4 14L4 13ZM6 13L6 14L7 14L7 13ZM17 14L17 15L18 15L18 14ZM30 14L30 15L32 15L32 14ZM10 15L10 16L11 16L11 15ZM12 17L12 18L13 18L13 17ZM16 18L16 19L15 19L15 20L13 20L13 19L11 19L11 21L12 21L12 20L13 20L13 21L15 21L15 20L16 20L16 19L17 19L17 20L19 20L19 18L18 18L18 19L17 19L17 18ZM20 18L20 20L21 20L21 19L22 19L22 18ZM0 21L0 25L1 25L1 21ZM4 23L4 24L5 24L5 23ZM6 23L6 24L7 24L7 23ZM18 25L18 26L19 26L19 25ZM25 25L25 28L28 28L28 25ZM26 26L26 27L27 27L27 26ZM30 26L30 27L31 27L31 26ZM16 27L16 28L17 28L17 29L18 29L18 27ZM29 28L29 29L28 29L28 31L29 31L29 29L30 29L30 28ZM0 0L7 0L7 7L0 7ZM1 1L1 6L6 6L6 1ZM2 2L5 2L5 5L2 5ZM26 0L33 0L33 7L26 7ZM27 1L27 6L32 6L32 1ZM28 2L31 2L31 5L28 5ZM0 26L7 26L7 33L0 33ZM1 27L1 32L6 32L6 27ZM2 28L5 28L5 31L2 31Z" fill="#000000"/></g></g></svg>
